Coordinates
version=1
nRows=27
nColumns=34
inDegrees=no

Units are S.I. units (second, meters, Newtons, ...)
If the header above contains a line with 'inDegrees', this indicates whether rotational values are in degrees (yes) or radians (no).

endheader
time	pelvis_tilt	pelvis_list	pelvis_rotation	pelvis_tx	pelvis_ty	pelvis_tz	hip_flexion_r	hip_adduction_r	hip_rotation_r	knee_angle_r	ankle_angle_r	subtalar_angle_r	mtp_angle_r	hip_flexion_l	hip_adduction_l	hip_rotation_l	knee_angle_l	ankle_angle_l	subtalar_angle_l	mtp_angle_l	lumbar_extension	lumbar_bending	lumbar_rotation	arm_flex_r	arm_add_r	arm_rot_r	elbow_flex_r	pro_sup_r	arm_flex_l	arm_add_l	arm_rot_l	elbow_flex_l	pro_sup_l
13.3	0.370055	0.0115935	0.0649294	-0.65576	0.581194	-0.612831	1.18525	-0.296682	0.098464	1.5689	-0.00175835	-0.475867	-0.00241763	1.19125	-0.160646	0.0778613	1.53803	-0.10614	-0.57448	-0.00241763	-0.589931	0.0307049	-0.0462459	-0.0264729	-0.151092	-0.118435	2.06705	1.95095	-0.0749979	-0.100207	-0.119295	2.13306	1.99102
13.31	0.375339	0.0105841	0.0653939	-0.656473	0.581107	-0.612749	1.17979	-0.295553	0.0973997	1.56869	-0.00243954	-0.477436	-0.00241763	1.18698	-0.160034	0.08022	1.53807	-0.107696	-0.575249	-0.00241763	-0.585417	0.0309419	-0.0446875	-0.0296575	-0.1504	-0.117333	2.06303	1.95115	-0.0768027	-0.103927	-0.11493	2.13045	1.99725
13.32	0.3809	0.0104284	0.0661334	-0.657166	0.581045	-0.612731	1.17433	-0.295206	0.0973071	1.56869	-0.00301175	-0.478601	-0.00241763	1.18202	-0.158333	0.0819933	1.53784	-0.109454	-0.576878	-0.00241763	-0.581472	0.0306238	-0.0441339	-0.0321238	-0.149902	-0.116513	2.05907	1.95467	-0.0778622	-0.108259	-0.109885	2.1281	1.99847
13.33	0.386438	0.0103388	0.0666696	-0.657831	0.581038	-0.612719	1.16876	-0.294663	0.097347	1.56839	-0.00417382	-0.479263	-0.00241763	1.17695	-0.156864	0.0835089	1.53753	-0.111281	-0.57879	-0.00241763	-0.577926	0.0304395	-0.0434702	-0.034043	-0.149557	-0.11558	2.05559	1.95441	-0.0784135	-0.112437	-0.104294	2.12615	1.99182
13.34	0.392013	0.0101585	0.0666132	-0.658489	0.58107	-0.612701	1.163	-0.293619	0.0973503	1.56773	-0.00656381	-0.479931	-0.00241763	1.17179	-0.156246	0.0845605	1.53727	-0.113375	-0.580803	-0.00241763	-0.574994	0.0302739	-0.0424263	-0.0350203	-0.149547	-0.115018	2.05189	1.95863	-0.078421	-0.116337	-0.100573	2.12324	1.99347
13.35	0.398094	0.0102175	0.0664424	-0.659139	0.581145	-0.612732	1.15688	-0.292748	0.0977442	1.56731	-0.00817238	-0.480005	-0.00241763	1.16586	-0.155546	0.0852608	1.53699	-0.114986	-0.582734	-0.00241763	-0.573038	0.0299789	-0.0418492	-0.0348663	-0.149783	-0.113846	2.04845	1.9583	-0.0780251	-0.120068	-0.0976778	2.12125	1.99014
13.36	0.404434	0.0101915	0.0668738	-0.659764	0.581228	-0.612838	1.15066	-0.2923	0.0982032	1.5674	-0.00843267	-0.48065	-0.00241763	1.15964	-0.153918	0.0865864	1.53669	-0.116561	-0.585536	-0.00241763	-0.571661	0.0301986	-0.0418892	-0.0340103	-0.150238	-0.112288	2.04505	1.95943	-0.0772599	-0.123553	-0.0955294	2.11894	1.9934
13.37	0.410665	0.0097958	0.067756	-0.660394	0.581292	-0.612952	1.14441	-0.291916	0.0982224	1.56758	-0.0081015	-0.481921	-0.00241763	1.15376	-0.151873	0.0887696	1.53648	-0.118113	-0.588553	-0.00241763	-0.570597	0.0310244	-0.0419964	-0.032676	-0.151624	-0.109836	2.04228	1.95869	-0.075985	-0.127001	-0.0928858	2.11694	1.99587
13.38	0.416784	0.0094396	0.0684616	-0.661024	0.581346	-0.613012	1.1381	-0.291555	0.0979845	1.5675	-0.00880812	-0.483029	-0.00241763	1.14812	-0.150321	0.090805	1.53647	-0.119257	-0.590589	-0.00241763	-0.569887	0.031628	-0.0421578	-0.0306894	-0.154172	-0.106455	2.03957	1.95956	-0.0743227	-0.130134	-0.0907115	2.11541	1.99656
13.39	0.422693	0.00940986	0.0690569	-0.661603	0.581395	-0.613065	1.13204	-0.291573	0.0979259	1.56742	-0.0102457	-0.483134	-0.00241763	1.14264	-0.149001	0.0923447	1.53664	-0.119724	-0.591672	-0.00241763	-0.569252	0.0318246	-0.0425738	-0.0284223	-0.157004	-0.102628	2.03679	1.96087	-0.0725808	-0.132582	-0.0895542	2.11411	1.99771
13.4	0.428048	0.00940257	0.0697846	-0.662123	0.581428	-0.613155	1.12662	-0.291704	0.0980743	1.56752	-0.0111957	-0.482938	-0.00241763	1.13766	-0.147323	0.0939569	1.53679	-0.120297	-0.593397	-0.00241763	-0.56822	0.0321462	-0.0428558	-0.026444	-0.159309	-0.0992553	2.03444	1.96008	-0.0708125	-0.13481	-0.0883914	2.11267	2.00003
13.41	0.432754	0.00918284	0.0701765	-0.662625	0.581434	-0.613225	1.12191	-0.291124	0.0983146	1.56749	-0.0118937	-0.483695	-0.00241763	1.13333	-0.145858	0.0956514	1.5368	-0.12179	-0.596511	-0.00241763	-0.566738	0.0326058	-0.0426235	-0.024431	-0.161315	-0.0970309	2.03208	1.96478	-0.0690431	-0.137408	-0.0869846	2.11094	2.00429
13.42	0.437138	0.00889407	0.069866	-0.663129	0.581411	-0.613207	1.1176	-0.289676	0.098705	1.5672	-0.0126496	-0.484769	-0.00241763	1.12934	-0.145386	0.0970076	1.53682	-0.12358	-0.599501	-0.00241763	-0.565261	0.0327864	-0.0421677	-0.0218137	-0.163623	-0.0944202	2.03004	1.96764	-0.0673805	-0.140224	-0.0855198	2.11003	2.00348
13.43	0.44159	0.00876996	0.0692846	-0.663629	0.581379	-0.613096	1.11337	-0.288044	0.0992226	1.56697	-0.0135822	-0.485657	-0.00241763	1.12526	-0.145512	0.0980256	1.53687	-0.124749	-0.601131	-0.00241763	-0.56432	0.0324862	-0.0419787	-0.0189465	-0.165775	-0.0906957	2.02863	1.96492	-0.065617	-0.142611	-0.0849219	2.10993	2.00041
13.44	0.446213	0.00898167	0.0689073	-0.664114	0.58139	-0.612949	1.10901	-0.286935	0.099656	1.56699	-0.0148727	-0.486814	-0.00241763	1.12082	-0.1454	0.098783	1.53689	-0.125048	-0.601446	-0.00241763	-0.564041	0.0317518	-0.0421467	-0.0165802	-0.166671	-0.0879485	2.02715	1.96896	-0.0635329	-0.143942	-0.0864461	2.10926	2.00804
13.45	0.450679	0.00940848	0.0686404	-0.664564	0.581468	-0.612843	1.10464	-0.286401	0.0998761	1.56701	-0.0153092	-0.487034	-0.00241763	1.11632	-0.145076	0.0991951	1.53693	-0.124629	-0.600481	-0.00241763	-0.563898	0.0309306	-0.0422891	-0.0148303	-0.166332	-0.0864845	2.02653	1.96685	-0.0616124	-0.144121	-0.0877706	2.10938	2.00978
13.46	0.454378	0.00954604	0.0681921	-0.664963	0.581553	-0.612778	1.10084	-0.285695	0.0998572	1.56677	-0.0149622	-0.486445	-0.00241763	1.11263	-0.14515	0.0995634	1.53705	-0.124113	-0.599022	-0.00241763	-0.563109	0.0304281	-0.0420227	-0.0132425	-0.165652	-0.0860918	2.02598	1.96586	-0.0604113	-0.143534	-0.0881504	2.10988	2.00679
13.47	0.4573	0.00928808	0.067604	-0.665328	0.581592	-0.612693	1.09777	-0.28444	0.0997534	1.56636	-0.0143247	-0.485945	-0.00241763	1.10989	-0.14555	0.100242	1.53701	-0.124624	-0.599263	-0.00241763	-0.561764	0.0300835	-0.0415954	-0.0116156	-0.165519	-0.0848373	2.0259	1.96064	-0.059739	-0.143115	-0.0877329	2.11102	2.00009
13.48	0.460109	0.0091162	0.067043	-0.665689	0.581633	-0.612576	1.09483	-0.283175	0.0996583	1.56592	-0.014325	-0.486442	-0.00241763	1.1072	-0.145797	0.100966	1.53676	-0.125699	-0.600739	-0.00241763	-0.560711	0.0295561	-0.0413319	-0.0100011	-0.165819	-0.0834863	2.02567	1.9619	-0.0589952	-0.143452	-0.0874797	2.11229	1.99646
13.49	0.463241	0.00918402	0.0665249	-0.666059	0.581724	-0.612466	1.09157	-0.282333	0.0994871	1.5655	-0.0148681	-0.487038	-0.00241763	1.10401	-0.145948	0.101415	1.53662	-0.125542	-0.600294	-0.00241763	-0.560403	0.0290355	-0.0410577	-0.0084561	-0.165607	-0.0832996	2.02537	1.96904	-0.0579989	-0.14397	-0.0879324	2.11285	1.99922
13.5	0.466322	0.00917519	0.066065	-0.666422	0.58182	-0.612362	1.08841	-0.281661	0.0992539	1.56513	-0.0152932	-0.486735	-0.00241763	1.10091	-0.146287	0.101769	1.53664	-0.124435	-0.598212	-0.00241763	-0.560357	0.0287273	-0.040658	-0.00710488	-0.164528	-0.0833827	2.02588	1.96881	-0.0570342	-0.143721	-0.0887785	2.11358	2.00014
13.51	0.468773	0.0090171	0.0657824	-0.666737	0.581881	-0.61226	1.08591	-0.281081	0.0990546	1.56486	-0.0152898	-0.485885	-0.00241763	1.09862	-0.146653	0.10222	1.5366	-0.124076	-0.597397	-0.00241763	-0.559901	0.028427	-0.0404486	-0.0061268	-0.163516	-0.0824955	2.02688	1.96236	-0.0565301	-0.142576	-0.089873	2.11491	1.99883
13.52	0.470705	0.00895058	0.0657163	-0.666988	0.581937	-0.612191	1.08389	-0.281023	0.0987489	1.56468	-0.0150487	-0.485314	-0.00241763	1.09684	-0.146742	0.102603	1.53649	-0.124469	-0.597556	-0.00241763	-0.559167	0.0279949	-0.0405497	-0.00554414	-0.163201	-0.0812738	2.02762	1.95835	-0.0565411	-0.141114	-0.0907934	2.11637	1.99806
13.53	0.472734	0.00914616	0.065833	-0.667217	0.582006	-0.61216	1.08178	-0.281743	0.098234	1.56463	-0.0145706	-0.484965	-0.00241763	1.09484	-0.146488	0.102714	1.5364	-0.124777	-0.597046	-0.00241763	-0.558882	0.0275055	-0.0408669	-0.0051344	-0.163127	-0.080793	2.02846	1.9563	-0.0565675	-0.139872	-0.0915573	2.11785	1.99604
13.54	0.474934	0.00956331	0.0661091	-0.667458	0.582066	-0.612142	1.07957	-0.28291	0.0976985	1.56464	-0.0142152	-0.484684	-0.00241763	1.09259	-0.145997	0.102543	1.5362	-0.12545	-0.597117	-0.00241763	-0.55917	0.0270501	-0.0415211	-0.00466599	-0.163038	-0.0807815	2.02958	1.95694	-0.056487	-0.139019	-0.093051	2.11909	1.99635
13.55	0.476746	0.00984516	0.0663468	-0.667687	0.582106	-0.612118	1.07776	-0.283777	0.0972	1.56453	-0.0142067	-0.48428	-0.00241763	1.09079	-0.145702	0.102334	1.53586	-0.126676	-0.598558	-0.00241763	-0.559384	0.0268083	-0.042238	-0.00423988	-0.16314	-0.0802412	2.03083	1.95738	-0.0568358	-0.138373	-0.0943616	2.1204	1.99552
13.56	0.478028	0.00973434	0.0662841	-0.667878	0.582142	-0.612088	1.07644	-0.283971	0.0966522	1.56426	-0.0146153	-0.484156	-0.00241763	1.08954	-0.145998	0.102243	1.53554	-0.127483	-0.599549	-0.00241763	-0.55926	0.0267984	-0.0423194	-0.00413787	-0.163352	-0.0795124	2.03194	1.95531	-0.0576415	-0.137467	-0.0946197	2.12164	1.99152
